<svg xmlns="http://www.w3.org/2000/svg" viewBox="0 0 24 24" width="24" height="24"><g fill="none"><path fill="url(#credit-cards-a)" d="M13.6 17H7.4c-2.24 0-3.36 0-4.216-.436a4 4 0 0 1-1.748-1.748C1 13.96 1 12.84 1 10.6V8.4c0-2.24 0-3.36.436-4.216a4 4 0 0 1 1.748-1.748C4.04 2 5.16 2 7.4 2h6.2c2.24 0 3.36 0 4.216.436a4 4 0 0 1 1.748 1.748C20 5.04 20 6.16 20 8.4v3.1h.137c.679 0 1.193.484 1.328 1.104q.035-.304.035-.647v.971q0-.167-.035-.324c-.13 1.132-.633 1.902-1.677 2.63l-1.482 1.032c-.17.118-.336.22-.49.298C16.96 17 15.84 17 13.6 17" data-glass="origin" mask="url(#credit-cards-b)"/><path fill="url(#credit-cards-a)" d="M13.6 17H7.4c-2.24 0-3.36 0-4.216-.436a4 4 0 0 1-1.748-1.748C1 13.96 1 12.84 1 10.6V8.4c0-2.24 0-3.36.436-4.216a4 4 0 0 1 1.748-1.748C4.04 2 5.16 2 7.4 2h6.2c2.24 0 3.36 0 4.216.436a4 4 0 0 1 1.748 1.748C20 5.04 20 6.16 20 8.4v3.1h.137c.679 0 1.193.484 1.328 1.104q.035-.304.035-.647v.971q0-.167-.035-.324c-.13 1.132-.633 1.902-1.677 2.63l-1.482 1.032c-.17.118-.336.22-.49.298C16.96 17 15.84 17 13.6 17" clip-path="url(#credit-cards-c)" data-glass="clone" filter="url(#credit-cards-e)"/><path fill="url(#credit-cards-f)" d="M16.6 7c2.24 0 3.36 0 4.216.436a4 4 0 0 1 1.749 1.748C23 10.039 23 11.16 23 13.4v2.2c0 2.24 0 3.36-.436 4.216a4 4 0 0 1-1.748 1.749C19.961 22 18.84 22 16.6 22h-6.2c-2.24 0-3.36 0-4.216-.436a4 4 0 0 1-1.748-1.748C4 18.961 4 17.84 4 15.6v-2.2c0-2.24 0-3.36.436-4.216a4 4 0 0 1 1.748-1.748C7.039 7 8.16 7 10.4 7zM7 12a1 1 0 1 0 0 2h13l.102-.005a1 1 0 0 0 0-1.99L20 12z" data-glass="blur"/><path fill="url(#credit-cards-g)" d="M16.6 21.25V22h-6.2v-.75zm5.65-5.65v-2.2c0-1.132 0-1.937-.052-2.566-.05-.62-.147-1.005-.303-1.31a3.25 3.25 0 0 0-1.42-1.42c-.304-.155-.688-.252-1.309-.302-.63-.052-1.434-.052-2.566-.052h-6.2c-1.132 0-1.937 0-2.566.052-.62.05-1.005.147-1.31.302a3.25 3.25 0 0 0-1.42 1.42c-.155.305-.252.69-.302 1.31-.052.63-.052 1.434-.052 2.566v2.2c0 1.132 0 1.937.052 2.566.05.62.147 1.005.302 1.31a3.25 3.25 0 0 0 1.42 1.42c.305.155.69.252 1.31.302.63.052 1.434.052 2.566.052V22l-1.484-.007c-1.192-.019-1.955-.089-2.568-.352l-.164-.076a4 4 0 0 1-1.594-1.473l-.154-.276C4 18.961 4 17.84 4 15.6v-2.2c0-2.24 0-3.36.436-4.216a4 4 0 0 1 1.748-1.748c.641-.327 1.432-.409 2.732-.43L10.4 7h6.2c2.24 0 3.36 0 4.216.436a4 4 0 0 1 1.749 1.748C23 10.039 23 11.16 23 13.4v2.2c0 2.24 0 3.36-.436 4.216l-.154.276a4 4 0 0 1-1.594 1.473l-.164.076C19.816 22 18.7 22 16.6 22v-.75c1.132 0 1.937 0 2.566-.052.62-.05 1.005-.147 1.31-.303a3.25 3.25 0 0 0 1.42-1.42c.155-.304.252-.688.302-1.309.052-.63.052-1.434.052-2.566"/><defs><linearGradient id="credit-cards-a" x1="11.25" x2="11.25" y1="2" y2="17" gradientUnits="userSpaceOnUse"><stop stop-color="#f4f6fb"/><stop offset="1" stop-color="#5f6f8c"/></linearGradient><linearGradient id="credit-cards-f" x1="13.5" x2="13.5" y1="7" y2="22" gradientUnits="userSpaceOnUse"><stop stop-color="#E3E3E5" stop-opacity=".6"/><stop offset="1" stop-color="#BBBBC0" stop-opacity=".6"/></linearGradient><linearGradient id="credit-cards-g" x1="13.5" x2="13.5" y1="7" y2="15.687" gradientUnits="userSpaceOnUse"><stop stop-color="#fff"/><stop offset="1" stop-color="#fff" stop-opacity="0"/></linearGradient><clipPath id="credit-cards-c"><path fill="url(#credit-cards-f)" d="M16.6 7c2.24 0 3.36 0 4.216.436a4 4 0 0 1 1.749 1.748C23 10.039 23 11.16 23 13.4v2.2c0 2.24 0 3.36-.436 4.216a4 4 0 0 1-1.748 1.749C19.961 22 18.84 22 16.6 22h-6.2c-2.24 0-3.36 0-4.216-.436a4 4 0 0 1-1.748-1.748C4 18.961 4 17.84 4 15.6v-2.2c0-2.24 0-3.36.436-4.216a4 4 0 0 1 1.748-1.748C7.039 7 8.16 7 10.4 7zM7 12a1 1 0 1 0 0 2h13l.102-.005a1 1 0 0 0 0-1.99L20 12z"/></clipPath><filter id="credit-cards-e" width="400%" height="400%" x="-100%" y="-100%" filterUnits="objectBoundingBox" primitiveUnits="userSpaceOnUse"><feGaussianBlur width="100%" height="100%" x="0%" y="0%" in="SourceGraphic" result="blur" stdDeviation="2"/></filter><mask id="credit-cards-b"><rect width="100%" height="100%" fill="#FFF"/><path fill="#000" d="M16.6 7c2.24 0 3.36 0 4.216.436a4 4 0 0 1 1.749 1.748C23 10.039 23 11.16 23 13.4v2.2c0 2.24 0 3.36-.436 4.216a4 4 0 0 1-1.748 1.749C19.961 22 18.84 22 16.6 22h-6.2c-2.24 0-3.36 0-4.216-.436a4 4 0 0 1-1.748-1.748C4 18.961 4 17.84 4 15.6v-2.2c0-2.24 0-3.36.436-4.216a4 4 0 0 1 1.748-1.748C7.039 7 8.16 7 10.4 7zM7 12a1 1 0 1 0 0 2h13l.102-.005a1 1 0 0 0 0-1.99L20 12z"/></mask></defs></g></svg>