<svg xmlns="http://www.w3.org/2000/svg" viewBox="0 0 24 24" width="24" height="24"><g fill="none"><path fill="url(#location-a)" d="M12 17c2.585 0 4.964.223 6.729.6.878.188 1.653.425 2.227.715C21.524 18.603 22 19 22 19.5s-.476.897-1.044 1.185c-.574.29-1.35.527-2.227.714-1.765.378-4.144.601-6.729.601s-4.964-.223-6.729-.6c-.878-.188-1.653-.425-2.227-.715C2.476 20.397 2 20 2 19.5s.476-.897 1.044-1.185c.574-.29 1.35-.527 2.227-.714C7.036 17.223 9.415 17 12 17m0-13a5 5 0 1 1 0 10 5 5 0 0 1 0-10" data-glass="origin" mask="url(#location-b)"/><path fill="url(#location-a)" d="M12 17c2.585 0 4.964.223 6.729.6.878.188 1.653.425 2.227.715C21.524 18.603 22 19 22 19.5s-.476.897-1.044 1.185c-.574.29-1.35.527-2.227.714-1.765.378-4.144.601-6.729.601s-4.964-.223-6.729-.6c-.878-.188-1.653-.425-2.227-.715C2.476 20.397 2 20 2 19.5s.476-.897 1.044-1.185c.574-.29 1.35-.527 2.227-.714C7.036 17.223 9.415 17 12 17m0-13a5 5 0 1 1 0 10 5 5 0 0 1 0-10" clip-path="url(#location-c)" data-glass="clone" filter="url(#location-d)"/><path fill="url(#location-f)" d="M12 1c3.804 0 8 2.69 8 7.594 0 3.231-1.97 6.073-3.766 8.013a24 24 0 0 1-2.511 2.343q-.305.246-.621.48a1.85 1.85 0 0 1-2.204 0 19 19 0 0 1-.62-.48 24 24 0 0 1-2.512-2.343C5.97 14.667 4 11.825 4 8.594 4 3.69 8.196 1 12 1m0 4a4 4 0 1 0 0 8 4 4 0 0 0 0-8" data-glass="blur"/><path fill="url(#location-g)" d="M12 1c3.804 0 8 2.69 8 7.594 0 3.231-1.97 6.073-3.766 8.013a24 24 0 0 1-2.511 2.343q-.305.246-.621.48a1.85 1.85 0 0 1-2.204 0 19 19 0 0 1-.62-.48 24 24 0 0 1-2.512-2.343C5.97 14.667 4 11.825 4 8.594 4 3.69 8.196 1 12 1m0 .75c-3.515 0-7.25 2.469-7.25 6.844 0 2.939 1.805 5.6 3.566 7.504.885.956 1.77 1.732 2.433 2.27q.292.235.597.46c.388.288.92.289 1.308 0q.307-.227.597-.46a24 24 0 0 0 2.433-2.27c1.76-1.904 3.566-4.565 3.566-7.504 0-4.375-3.735-6.844-7.25-6.844"/><defs><linearGradient id="location-a" x1="12" x2="12" y1="0" y2="25" gradientUnits="userSpaceOnUse"><stop stop-color="#f4f6fb"/><stop offset="1" stop-color="#5f6f8c"/></linearGradient><linearGradient id="location-f" x1="12" x2="12" y1="1" y2="19.795" gradientUnits="userSpaceOnUse"><stop stop-color="#E3E3E5" stop-opacity=".6"/><stop offset="1" stop-color="#BBBBC0" stop-opacity=".6"/></linearGradient><linearGradient id="location-g" x1="12" x2="12" y1="1" y2="11.884" gradientUnits="userSpaceOnUse"><stop stop-color="#fff"/><stop offset="1" stop-color="#fff" stop-opacity="0"/></linearGradient><clipPath id="location-c"><path fill="url(#location-f)" d="M12 1c3.804 0 8 2.69 8 7.594 0 3.231-1.97 6.073-3.766 8.013a24 24 0 0 1-2.511 2.343q-.305.246-.621.48a1.85 1.85 0 0 1-2.204 0 19 19 0 0 1-.62-.48 24 24 0 0 1-2.512-2.343C5.97 14.667 4 11.825 4 8.594 4 3.69 8.196 1 12 1m0 4a4 4 0 1 0 0 8 4 4 0 0 0 0-8"/></clipPath><filter id="location-d" width="400%" height="400%" x="-100%" y="-100%" filterUnits="objectBoundingBox" primitiveUnits="userSpaceOnUse"><feGaussianBlur width="100%" height="100%" x="0%" y="0%" in="SourceGraphic" result="blur" stdDeviation="2"/></filter><mask id="location-b"><rect width="100%" height="100%" fill="#FFF"/><path fill="#000" d="M12 1c3.804 0 8 2.69 8 7.594 0 3.231-1.97 6.073-3.766 8.013a24 24 0 0 1-2.511 2.343q-.305.246-.621.48a1.85 1.85 0 0 1-2.204 0 19 19 0 0 1-.62-.48 24 24 0 0 1-2.512-2.343C5.97 14.667 4 11.825 4 8.594 4 3.69 8.196 1 12 1m0 4a4 4 0 1 0 0 8 4 4 0 0 0 0-8"/></mask></defs></g></svg>