<svg xmlns="http://www.w3.org/2000/svg" viewBox="0 0 24 24" width="24" height="24"><g fill="none"><path fill="url(#toggle-a)" d="M18 7a5 5 0 0 1 0 10H9A5 5 0 0 1 9 7z" data-glass="origin" mask="url(#toggle-b)"/><path fill="url(#toggle-a)" d="M18 7a5 5 0 0 1 0 10H9A5 5 0 0 1 9 7z" clip-path="url(#toggle-c)" data-glass="clone" filter="url(#toggle-e)"/><path fill="url(#toggle-f)" d="M15 12a7 7 0 1 1-14 0 7 7 0 0 1 14 0" data-glass="blur"/><path fill="url(#toggle-g)" d="M14.25 12A6.25 6.25 0 1 0 8 18.25V19A7 7 0 1 1 8 5a7 7 0 0 1 0 14v-.75A6.25 6.25 0 0 0 14.25 12"/><defs><linearGradient id="toggle-a" x1="13.5" x2="13.5" y1="7" y2="17" gradientUnits="userSpaceOnUse"><stop stop-color="#f4f6fb"/><stop offset="1" stop-color="#5f6f8c"/></linearGradient><linearGradient id="toggle-f" x1="8" x2="8" y1="5" y2="19" gradientUnits="userSpaceOnUse"><stop stop-color="#E3E3E5" stop-opacity=".6"/><stop offset="1" stop-color="#BBBBC0" stop-opacity=".6"/></linearGradient><linearGradient id="toggle-g" x1="8" x2="8" y1="5" y2="13.107" gradientUnits="userSpaceOnUse"><stop stop-color="#fff"/><stop offset="1" stop-color="#fff" stop-opacity="0"/></linearGradient><clipPath id="toggle-c"><path fill="url(#toggle-f)" d="M15 12a7 7 0 1 1-14 0 7 7 0 0 1 14 0"/></clipPath><filter id="toggle-e" width="400%" height="400%" x="-100%" y="-100%" filterUnits="objectBoundingBox" primitiveUnits="userSpaceOnUse"><feGaussianBlur width="100%" height="100%" x="0%" y="0%" in="SourceGraphic" result="blur" stdDeviation="2"/></filter><mask id="toggle-b"><rect width="100%" height="100%" fill="#FFF"/><path fill="#000" d="M15 12a7 7 0 1 1-14 0 7 7 0 0 1 14 0"/></mask></defs></g></svg>